<?xml version="1.0" standalone="no"?>
<!DOCTYPE svg PUBLIC "-//W3C//DTD SVG 20010904//EN"
 "http://www.w3.org/TR/2001/REC-SVG-20010904/DTD/svg10.dtd">
<svg version="1.0" xmlns="http://www.w3.org/2000/svg"
 width="317.000000pt" height="317.000000pt" viewBox="0 0 317.000000 317.000000"
 preserveAspectRatio="xMidYMid meet">
<metadata>
Created by potrace 1.14, written by Peter Selinger 2001-2017
</metadata>
<g transform="translate(0.000000,317.000000) scale(0.100000,-0.100000)"
fill="#000000" stroke="none">
<path d="M3007 2995 c-15 -13 -34 -22 -42 -19 -8 4 -15 1 -15 -6 0 -7 -7 -10
-15 -7 -8 4 -17 1 -21 -5 -4 -7 -3 -8 4 -4 11 7 17 -6 13 -27 -1 -5 3 -6 9 -2
6 3 7 11 4 17 -5 7 -2 8 6 3 9 -6 11 -4 5 5 -6 9 -4 11 5 5 8 -5 11 -4 7 2 -6
9 0 11 41 14 23 2 42 18 42 35 0 20 -11 17 -43 -11z m33 6 c0 -5 -7 -12 -16
-15 -14 -5 -15 -4 -4 9 14 17 20 19 20 6z"/>
<path d="M2975 3000 c-3 -6 1 -7 9 -4 18 7 21 14 7 14 -6 0 -13 -4 -16 -10z"/>
<path d="M3052 2978 c-18 -10 -37 -16 -42 -13 -5 3 -24 -8 -41 -24 -17 -17
-35 -28 -40 -25 -5 2 -19 -2 -32 -11 -13 -8 -27 -12 -32 -8 -4 5 -5 2 -1 -5 4
-7 12 -10 17 -7 5 4 9 1 9 -4 0 -6 -5 -11 -11 -11 -5 0 -7 -4 -4 -10 3 -6 -1
-7 -9 -4 -9 3 -14 9 -12 13 3 4 -4 7 -15 7 -18 0 -18 -2 -5 -12 9 -6 16 -17
16 -24 0 -10 -4 -9 -17 1 -15 13 -15 12 -3 -11 7 -14 9 -22 5 -18 -5 4 -14 3
-22 -3 -10 -9 -17 -8 -30 2 -16 12 -17 12 -6 -2 7 -9 9 -19 5 -24 -4 -4 3 -3
15 4 27 14 33 14 33 0 0 -5 -4 -8 -8 -5 -14 8 -54 -25 -48 -40 3 -7 0 -16 -6
-20 -6 -4 -8 -3 -4 4 3 6 1 14 -4 17 -7 5 -5 12 7 21 10 7 13 14 7 14 -5 0
-20 -9 -31 -19 -12 -11 -24 -17 -28 -13 -4 4 -5 0 -3 -8 2 -8 -3 -14 -10 -12
-8 1 -11 -1 -8 -6 3 -5 -1 -18 -9 -28 -13 -17 -14 -17 -15 -2 0 9 -4 20 -10
23 -7 4 -7 -2 0 -19 8 -21 6 -27 -9 -35 -10 -6 -22 -7 -26 -3 -5 4 -5 1 -1 -6
4 -7 12 -10 17 -7 5 4 9 2 9 -3 0 -6 -7 -13 -16 -16 -21 -8 -26 -8 -20 2 2 4
-4 8 -15 8 -19 0 -19 -1 -3 -13 10 -7 15 -14 11 -14 -4 -1 -11 -2 -16 -3 -5 0
-13 -5 -18 -10 -4 -5 -3 -6 3 -3 7 4 14 1 17 -7 6 -15 -9 -16 -31 -2 -11 7
-11 4 0 -13 11 -18 10 -23 -10 -37 -12 -8 -20 -19 -18 -23 3 -4 -8 -6 -25 -5
-16 1 -32 -3 -36 -9 -3 -5 -2 -7 3 -4 6 3 15 -3 22 -14 10 -15 10 -19 0 -17
-7 2 -12 -3 -10 -9 1 -7 -4 -12 -10 -10 -7 1 -12 -4 -10 -11 1 -8 -2 -11 -7
-8 -5 4 -13 2 -16 -4 -5 -8 -14 -6 -29 4 -16 10 -27 11 -37 4 -11 -8 -11 -9 3
-5 9 3 22 -2 30 -10 11 -14 11 -16 -4 -11 -10 4 -19 1 -22 -9 -5 -13 -9 -13
-24 -2 -15 13 -16 12 -4 -3 8 -9 11 -23 7 -30 -3 -7 2 -3 11 10 9 12 21 22 26
22 5 0 2 -7 -6 -16 -9 -8 -13 -20 -10 -26 4 -6 2 -8 -4 -4 -6 3 -13 2 -17 -4
-4 -7 -13 -7 -26 0 -10 6 -19 7 -18 3 4 -21 -2 -25 -14 -9 -12 16 -13 16 -13
-3 0 -11 5 -17 10 -14 5 4 7 -1 3 -11 -4 -10 -7 -20 -7 -22 0 -2 -5 -4 -11 -4
-5 0 -8 4 -4 9 3 5 1 12 -3 15 -13 8 -10 -47 3 -57 6 -5 4 -7 -5 -4 -8 2 -14
11 -12 18 2 8 0 11 -4 7 -4 -4 -14 -2 -23 5 -8 6 -5 -3 8 -21 12 -18 19 -32
14 -31 -21 4 -32 -3 -38 -21 -6 -20 -7 -20 -26 2 -12 13 -17 16 -13 8 14 -25
13 -39 -2 -33 -8 3 -11 9 -8 14 3 5 -2 6 -11 3 -17 -7 -15 -29 3 -29 5 0 14
-4 19 -9 5 -5 3 -6 -4 -2 -16 9 -17 -6 -2 -21 8 -8 7 -13 -2 -18 -8 -6 -10 -4
-5 4 5 8 0 14 -13 18 -11 3 -19 9 -16 13 3 5 1 11 -4 14 -5 4 -8 -5 -6 -19 2
-26 -9 -34 -19 -12 -4 6 -4 2 -2 -10 2 -13 0 -23 -5 -23 -5 0 -9 5 -9 11 0 6
-7 3 -16 -5 -8 -9 -20 -13 -26 -10 -7 4 -8 2 -4 -4 3 -6 -2 -15 -11 -21 -10
-6 -13 -11 -7 -11 15 0 14 -30 -1 -30 -7 0 -18 -7 -25 -15 -9 -11 -17 -12 -34
-4 -20 10 -20 10 -2 -5 18 -14 21 -14 40 2 10 9 16 12 13 5 -4 -6 -1 -14 5
-17 7 -3 4 -4 -7 -3 -11 1 -19 -3 -18 -9 1 -6 -4 -11 -12 -11 -8 0 -12 3 -10
7 2 4 -2 7 -9 7 -7 0 -13 -6 -13 -13 0 -7 3 -12 6 -10 3 2 15 0 26 -5 18 -8
17 -8 -5 -6 -19 1 -25 -3 -25 -20 0 -12 -4 -25 -8 -30 -5 -4 -8 -3 -7 2 5 21
-1 25 -19 15 -13 -6 -18 -17 -15 -32 2 -13 1 -16 -2 -8 -4 8 -12 18 -17 22 -6
4 6 16 27 28 20 13 35 25 32 27 -2 3 -15 -3 -28 -11 -14 -9 -28 -13 -33 -9 -4
5 -5 3 -2 -3 8 -14 -26 -47 -37 -37 -4 5 -6 1 -4 -7 2 -9 -3 -14 -12 -12 -8 2
-12 0 -7 -4 4 -4 -1 -16 -10 -27 -10 -11 -12 -17 -5 -13 7 4 12 1 12 -8 0 -9
-6 -13 -14 -10 -11 4 -13 0 -9 -18 5 -22 5 -22 -10 -3 -8 10 -12 26 -9 35 3 8
2 12 -2 9 -11 -10 -16 -50 -5 -44 5 4 9 -3 9 -14 0 -12 5 -21 12 -21 28 0 -10
-16 -46 -19 -5 -1 -3 -7 3 -15 8 -10 9 -16 1 -21 -6 -4 -9 -3 -8 2 2 4 -1 9
-7 11 -5 1 -10 -4 -10 -10 -1 -7 -6 -12 -13 -10 -7 1 -12 -2 -12 -8 0 -5 6
-10 13 -10 8 0 7 -3 -3 -10 -9 -5 -19 -5 -26 1 -8 7 -14 6 -19 -1 -3 -5 0 -10
7 -10 9 0 9 -3 -2 -10 -8 -5 -19 -10 -25 -10 -5 0 -3 5 5 10 11 7 11 10 2 10
-7 0 -11 4 -7 9 3 6 -4 8 -16 6 -28 -6 -41 -18 -14 -13 13 2 19 -2 17 -11 -2
-8 3 -18 10 -22 10 -7 8 -9 -5 -9 -10 0 -16 -3 -14 -7 3 -5 -7 -17 -21 -27
-14 -11 -22 -15 -19 -9 4 6 0 13 -8 17 -8 3 -17 0 -21 -6 -4 -6 -3 -8 3 -5 6
4 10 -5 9 -22 -1 -19 -5 -27 -14 -23 -9 3 -12 -2 -10 -14 2 -11 -2 -18 -9 -17
-6 2 -20 -8 -30 -20 -24 -31 -40 -39 -40 -22 0 8 5 11 10 8 6 -4 7 -1 2 7 -6
9 -4 11 5 5 9 -6 11 -4 5 5 -6 9 -4 11 5 5 9 -5 11 -4 6 4 -6 8 -12 9 -20 2
-7 -6 -15 -8 -18 -5 -3 2 -4 -14 -3 -36 3 -37 1 -39 -11 -23 -7 10 -14 14 -14
8 -1 -5 -6 -1 -11 10 -9 20 -9 20 -6 -1 3 -11 -2 -29 -10 -40 -14 -18 -15 -18
-8 6 7 22 6 23 -8 11 -9 -7 -14 -18 -10 -24 3 -6 1 -7 -5 -3 -9 5 -9 13 -2 26
16 30 12 34 -10 9 -10 -13 -19 -18 -20 -11 0 6 5 12 10 12 6 0 10 5 10 10 0
15 -24 7 -32 -10 -5 -12 -7 -12 -7 3 -1 10 9 22 22 27 12 5 15 9 7 9 -8 1 -28
-6 -44 -14 -25 -14 -27 -14 -16 0 9 10 9 15 1 15 -6 0 -11 5 -11 12 0 9 3 9
12 0 15 -15 28 -16 28 -2 0 6 -6 9 -12 8 -7 -2 -12 3 -10 10 4 20 -14 14 -32
-10 -16 -22 -16 -22 -6 -2 13 28 -9 50 -30 31 -12 -10 -12 -9 -2 5 9 11 10 18
2 23 -5 3 -10 1 -10 -4 0 -6 -5 -11 -10 -11 -6 0 -9 6 -8 13 2 6 -2 11 -8 10
-6 -1 -11 4 -11 12 0 8 4 12 9 9 4 -3 8 2 8 11 0 9 -4 14 -9 10 -5 -3 -12 -1
-16 5 -3 5 1 10 9 10 8 0 18 4 21 10 7 11 -23 2 -42 -12 -7 -6 -14 -4 -19 3
-4 7 -3 10 2 7 5 -3 14 -1 20 6 8 9 7 16 -4 26 -14 13 -15 12 -9 -3 4 -11 1
-17 -9 -17 -11 0 -13 6 -9 20 4 14 2 20 -7 18 -7 -2 -12 5 -11 16 1 13 -2 15
-10 7 -7 -7 -6 -15 3 -26 7 -9 8 -15 2 -15 -14 0 -24 33 -16 56 5 18 5 18 -6
1 -16 -25 -43 -3 -34 27 6 19 5 20 -11 6 -15 -12 -17 -12 -10 -1 6 11 4 13 -7
8 -9 -3 -23 2 -33 13 -10 11 -22 17 -27 14 -4 -3 -8 -2 -7 3 3 20 -2 34 -11
28 -6 -4 -9 -1 -8 7 2 7 -3 12 -10 10 -8 -1 -11 2 -7 7 9 15 31 3 44 -25 6
-15 16 -22 23 -18 7 5 8 3 3 -6 -5 -9 -4 -11 4 -6 6 4 9 12 5 17 -3 5 -10 7
-15 4 -5 -4 -9 -1 -9 4 0 6 5 11 11 11 5 0 7 5 3 11 -5 8 -9 8 -14 -1 -5 -8
-9 -8 -13 4 -3 8 -1 17 6 20 7 3 3 4 -8 1 -11 -2 -36 5 -55 16 -21 12 -26 17
-12 14 12 -4 22 -2 22 3 0 6 -13 9 -30 8 -27 -2 -28 -1 -15 14 21 23 19 30
-11 30 -14 0 -23 -4 -19 -10 3 -5 13 -6 23 -3 18 7 17 5 -11 -17 -15 -11 -18
-11 -15 0 2 8 -3 14 -11 15 -8 0 -16 7 -18 15 -4 12 -2 12 5 2 7 -11 11 -10
20 1 9 11 8 18 -8 32 -11 10 -17 21 -15 26 3 4 0 11 -6 15 -7 4 -9 3 -5 -4 4
-7 -5 -10 -28 -9 -26 2 -32 5 -24 15 12 13 22 17 14 4 -3 -5 1 -9 8 -9 8 0 12
6 9 14 -3 7 -9 13 -15 13 -5 0 -6 5 -2 12 4 6 3 8 -3 5 -11 -7 -36 16 -28 25
3 3 -2 11 -12 19 -14 12 -16 12 -8 0 6 -11 4 -13 -9 -8 -10 4 -20 7 -22 7 -3
0 -3 4 0 8 2 4 0 14 -6 22 -8 13 -9 12 -5 -2 3 -9 -1 -24 -9 -35 -14 -17 -15
-17 -5 3 14 29 -3 46 -46 47 -18 0 -16 14 3 21 22 9 31 7 16 -3 -11 -7 -11 -9
0 -14 9 -3 14 2 15 14 2 22 -35 26 -57 7 -8 -7 -6 -3 3 9 13 14 15 23 7 28 -8
5 -7 11 2 23 12 15 11 16 -4 3 -14 -10 -18 -10 -18 -1 0 9 -4 9 -17 -1 -11
-10 -14 -10 -9 -1 4 6 2 13 -3 13 -6 1 -16 2 -23 3 -6 0 -13 12 -15 26 -2 14
-4 30 -5 37 -1 7 -4 10 -8 8 -11 -7 -41 30 -33 39 5 4 1 6 -7 4 -10 -2 -14 4
-12 17 2 16 1 17 -7 5 -7 -10 -5 -20 7 -35 9 -11 13 -17 8 -13 -5 4 -16 2 -25
-5 -14 -10 -14 -10 -4 4 15 18 -1 41 -22 33 -18 -7 -30 15 -16 29 9 9 11 8 6
-5 -5 -12 -2 -17 12 -15 11 0 20 7 20 14 0 6 -3 10 -7 8 -9 -6 -60 51 -60 66
0 18 -25 3 -27 -17 -3 -19 -3 -19 5 0 7 17 9 17 15 4 3 -10 0 -19 -9 -22 -19
-7 -28 16 -20 50 6 24 6 25 -9 10 -15 -14 -19 -14 -46 6 -34 25 -33 24 -13 32
10 4 13 2 8 -6 -5 -7 -3 -8 6 -3 7 5 11 4 8 -1 -3 -5 0 -15 8 -22 11 -10 14
-10 14 2 0 8 6 17 13 20 6 3 3 4 -8 3 -15 -1 -19 3 -18 18 1 11 0 14 -3 7 -5
-10 -9 -10 -22 0 -13 11 -14 11 -7 -1 5 -10 4 -12 -3 -7 -7 4 -12 15 -12 24 0
15 -2 15 -10 2 -8 -13 -10 -12 -11 5 -1 11 -1 24 0 29 1 5 -5 6 -14 2 -9 -3
-19 -6 -21 -6 -3 0 -3 -4 0 -9 3 -5 -2 -15 -12 -22 -15 -13 -16 -12 -4 3 12
14 11 19 -7 30 -12 7 -21 17 -21 22 0 4 6 3 13 -3 8 -6 18 -7 22 -3 5 4 5 1 0
-7 -5 -9 -4 -12 3 -7 17 10 15 29 -2 23 -7 -3 -18 -1 -24 5 -7 7 -14 3 -22
-12 -8 -15 -8 -20 -1 -16 16 10 14 -19 -2 -33 -8 -6 -18 -7 -23 -3 -4 4 -3 0
3 -8 6 -8 9 -23 8 -33 -2 -9 1 -15 5 -12 5 3 7 14 5 24 -2 11 3 22 11 25 12 4
12 2 4 -14 -6 -11 -7 -20 -3 -20 4 0 1 -6 -5 -12 -10 -10 -8 -16 10 -31 17
-14 14 -14 -14 3 -21 12 -38 17 -38 11 0 -6 7 -11 16 -11 9 0 14 -6 11 -12
-20 -49 -20 -51 -6 -46 8 3 13 12 11 22 -2 9 2 16 8 16 6 0 9 -4 5 -9 -3 -6 3
-15 12 -21 17 -11 17 -11 0 -6 -13 4 -17 1 -15 -12 2 -9 8 -21 13 -25 6 -5 4
-7 -5 -4 -8 2 -14 9 -13 14 1 5 -5 10 -13 10 -7 0 -14 -4 -14 -9 0 -4 5 -8 10
-8 6 0 10 -5 10 -11 0 -6 -8 -8 -17 -5 -17 6 -17 5 0 -8 12 -9 16 -22 13 -40
-4 -23 -2 -25 14 -16 13 7 21 7 25 0 4 -6 1 -9 -5 -8 -7 2 -14 -5 -15 -14 -2
-11 3 -18 13 -19 15 0 15 -1 2 -7 -16 -7 -20 -25 -8 -38 5 -4 8 -12 8 -18 0
-6 -5 -4 -11 4 -8 11 -12 12 -16 2 -2 -6 -10 -9 -15 -6 -7 4 -8 2 -4 -4 4 -7
1 -12 -6 -12 -9 0 -9 -3 2 -10 8 -5 11 -10 7 -10 -4 0 -3 -8 2 -18 7 -13 6
-23 -2 -32 -7 -7 -7 -10 -1 -7 7 4 11 -5 12 -24 0 -18 -3 -27 -10 -23 -6 4 -6
-1 1 -14 9 -17 8 -23 -6 -32 -13 -8 -14 -10 -2 -7 8 3 26 -4 40 -15 21 -17 21
-18 2 -9 -27 14 -30 14 -30 -1 0 -7 -4 -21 -8 -32 -6 -14 -5 -17 6 -14 8 3 13
12 11 22 -2 9 3 16 9 16 7 0 9 -3 6 -7 -4 -3 -1 -13 6 -21 10 -13 9 -14 -1 -8
-16 10 -13 -24 3 -37 6 -5 4 -7 -5 -4 -8 2 -14 9 -13 14 1 5 -5 10 -13 10 -7
0 -14 -4 -14 -9 0 -4 5 -8 10 -8 6 0 10 -7 10 -16 0 -8 5 -12 10 -9 6 4 9 1 8
-7 -2 -7 4 -12 12 -10 11 3 11 0 -3 -15 -16 -18 -16 -20 1 -38 16 -18 16 -18
-1 -5 -16 12 -17 11 -12 -18 3 -17 1 -33 -3 -36 -5 -3 -8 5 -7 17 1 12 -2 30
-7 41 -8 14 -7 17 3 11 8 -5 10 -4 5 3 -13 22 -23 12 -22 -22 1 -19 4 -32 9
-29 4 2 5 -6 3 -19 -2 -13 -10 -22 -17 -20 -10 3 -10 0 1 -12 10 -13 10 -16
-1 -16 -11 0 -11 -2 1 -10 8 -5 11 -10 7 -10 -4 0 -3 -8 2 -18 7 -13 6 -23 -2
-32 -7 -7 -7 -10 -1 -7 7 4 11 -5 12 -24 0 -18 -3 -27 -10 -23 -6 4 -6 -1 1
-14 9 -17 8 -23 -6 -32 -13 -8 -13 -10 -3 -7 9 3 25 -2 35 -10 20 -15 20 -15
-1 -9 -13 4 -21 2 -21 -6 0 -7 -4 -21 -8 -32 -6 -14 -5 -17 6 -14 8 3 13 12
11 22 -2 9 2 16 8 16 6 0 9 -4 5 -9 -3 -6 3 -15 12 -21 17 -11 17 -11 0 -6
-13 4 -17 1 -15 -12 2 -9 8 -21 13 -25 6 -5 4 -7 -5 -4 -8 2 -14 9 -13 14 1 5
-5 10 -13 10 -7 0 -14 -4 -14 -9 0 -4 5 -8 10 -8 6 0 10 -5 10 -11 0 -6 -8 -8
-17 -5 -17 6 -17 5 0 -8 12 -9 16 -22 13 -40 -4 -23 -2 -25 14 -16 13 7 21 7
25 0 4 -6 1 -9 -5 -8 -7 2 -14 -5 -15 -14 -2 -11 3 -18 13 -19 15 0 15 -1 2
-7 -16 -7 -20 -25 -8 -38 5 -4 8 -12 8 -18 0 -6 -5 -4 -11 4 -8 11 -12 12 -16
2 -2 -6 -10 -9 -15 -6 -7 4 -8 2 -4 -4 4 -7 1 -12 -6 -12 -9 0 -9 -3 2 -10 8
-5 11 -10 7 -10 -4 0 -3 -8 2 -18 7 -13 6 -23 -2 -32 -7 -7 -7 -10 -1 -7 7 4
11 -5 12 -24 0 -18 -3 -27 -10 -23 -6 4 -6 -1 1 -14 9 -17 8 -23 -6 -32 -13
-8 -14 -10 -2 -7 8 3 26 -4 40 -15 21 -17 21 -18 2 -9 -27 14 -30 14 -30 -1 0
-7 -4 -21 -8 -32 -6 -14 -5 -17 6 -14 8 3 13 12 11 22 -2 9 3 16 9 16 7 0 9
-3 6 -7 -4 -3 -1 -13 6 -21 10 -13 9 -14 -1 -8 -16 10 -13 -24 3 -37 6 -5 4
-7 -5 -4 -8 2 -14 9 -13 14 1 5 -5 10 -13 10 -8 0 -14 -4 -14 -9 0 -4 5 -8 10
-8 6 0 10 -7 10 -16 0 -8 5 -12 10 -9 6 4 9 1 8 -7 -2 -7 4 -12 12 -10 11 3
11 0 -3 -15 -16 -18 -16 -20 1 -38 16 -18 16 -18 -1 -5 -16 12 -17 11 -12 -18
3 -17 1 -33 -3 -36 -5 -3 -8 5 -7 17 1 12 -2 30 -7 41 -8 14 -7 17 3 11 8 -5
10 -4 5 3 -13 22 -23 12 -22 -22 1 -19 4 -32 9 -29 4 2 5 -6 3 -19 -2 -13 -10
-22 -17 -20 -10 3 -10 0 1 -12 10 -13 10 -16 -1 -16 -11 0 -11 -2 1 -10 8 -5
11 -10 7 -10 -4 0 -3 -8 2 -18 7 -13 6 -23 -2 -32 -7 -7 -7 -10 -1 -7 7 4 11
-5 12 -24 0 -18 -3 -27 -10 -23 -6 4 -6 -1 1 -14 9 -17 8 -23 -6 -32 -13 -8
-13 -10 -3 -7 9 3 25 -2 35 -10 20 -15 20 -15 -1 -9 -13 4 -21 2 -21 -6 0 -7
-4 -21 -8 -32 -6 -14 -5 -17 6 -14 8 3 13 12 11 22 -2 9 2 16 8 16 6 0 9 -4 5
-9 -3 -6 3 -15 12 -21 17 -11 17 -11 0 -6 -13 4 -17 1 -15 -12 2 -9 8 -21 13
-25 6 -5 4 -7 -5 -4 -8 2 -14 9 -13 14 1 5 -5 10 -13 10 -8 0 -14 -4 -14 -9 0
-4 5 -8 10 -8 6 0 10 -5 10 -11 0 -6 -7 -9 -15 -6 -8 4 -17 2 -20 -4 -4 -5 -3
-9 2 -8 27 5 34 -3 29 -31 -4 -26 -2 -29 14 -20 13 7 21 7 25 0 4 -6 1 -9 -5
-8 -7 2 -14 -5 -15 -14 -2 -11 3 -18 13 -19 15 0 15 -1 2 -7 -17 -8 -19 -20
-5 -42 7 -11 3 -11 -18 3 -15 9 -27 13 -27 7 0 -5 4 -10 9 -10 13 0 8 -25 -9
-45 -10 -12 -11 -15 0 -13 7 2 15 -3 18 -11 3 -8 0 -11 -7 -7 -7 5 -9 1 -4 -9
4 -12 8 -13 13 -5 5 8 9 7 13 -5 5 -11 3 -14 -5 -9 -8 5 -9 2 -3 -12 4 -10 9
-32 10 -49 1 -23 6 -29 21 -28 10 1 13 0 7 -3 -24 -11 -13 -26 16 -22 23 3 28
1 23 -11 -4 -13 -2 -14 9 -3 17 16 37 16 21 0 -20 -20 -14 -30 6 -10 14 13 16
21 8 32 -8 12 -8 13 4 3 18 -16 44 -17 34 -1 -4 7 -3 8 5 4 9 -6 9 -11 0 -22
-7 -9 -8 -14 -1 -14 6 0 14 4 17 10 3 5 11 10 16 10 6 0 7 -4 4 -10 -3 -5 -2
-10 3 -10 16 0 22 13 12 25 -7 8 -5 12 4 12 9 0 13 -9 11 -24 -1 -13 1 -25 4
-28 4 -2 8 6 8 17 1 12 6 25 12 31 7 7 8 2 5 -14 l-6 -24 22 25 c20 24 21 24
10 2 -6 -13 -9 -28 -6 -35 2 -7 5 -4 5 6 1 10 5 16 11 12 5 -3 18 3 29 14 11
11 23 16 26 11 4 -6 1 -10 -4 -10 -6 0 -11 -8 -11 -17 0 -10 4 -14 8 -8 14 19
53 49 52 40 -5 -21 1 -36 10 -30 6 4 8 10 5 15 -3 5 -1 11 4 15 6 3 8 -3 6
-14 -2 -11 3 -25 10 -31 11 -10 13 -6 9 17 -4 25 -3 26 9 11 13 -16 15 -16 44
2 27 16 30 16 29 2 -1 -11 7 -17 21 -18 13 -1 20 3 16 9 -4 6 0 8 9 4 9 -3 25
1 36 9 13 9 23 11 27 4 3 -5 11 -10 16 -10 6 0 8 4 5 8 -3 5 1 9 8 9 7 0 13
-6 13 -13 0 -7 -4 -11 -8 -8 -4 2 -11 -1 -14 -6 -5 -7 -11 -5 -19 5 -11 16
-13 15 -27 -1 -12 -15 -12 -17 1 -12 8 3 23 -2 33 -11 14 -11 18 -12 15 -2 -3
15 29 24 38 10 3 -5 10 -7 15 -3 5 3 7 10 3 15 -3 5 -10 6 -16 3 -7 -4 -8 -2
-4 4 4 6 14 8 23 5 12 -5 14 -3 8 7 -5 8 -4 11 3 6 6 -4 9 -12 6 -19 -2 -7 4
-13 16 -14 11 -1 20 3 20 8 0 6 -4 8 -8 5 -5 -3 -9 2 -9 11 0 12 5 11 19 -7
10 -12 19 -19 19 -16 1 3 2 11 3 16 0 6 5 9 11 8 5 -2 9 -5 8 -8 -1 -3 -5 -14
-9 -25 -6 -16 -3 -15 14 5 14 16 21 20 22 11 0 -8 3 -11 7 -8 3 4 18 0 32 -9
24 -14 24 -14 -2 9 -27 22 -27 24 -10 38 16 12 17 12 6 -2 -11 -13 -9 -18 14
-28 24 -11 25 -11 12 5 -11 14 -11 16 0 10 8 -5 17 -3 23 5 7 10 8 8 3 -8 -3
-12 -1 -25 6 -29 7 -4 9 -3 5 4 -3 6 -1 14 5 17 6 4 13 -2 16 -14 3 -12 9 -21
14 -21 5 0 3 13 -5 28 -13 24 -13 29 -1 29 8 0 12 -3 10 -7 -2 -4 2 -16 10
-26 13 -18 14 -18 9 2 -3 12 -1 24 4 28 5 3 9 -2 8 -11 -1 -12 7 -18 21 -19
13 -1 20 3 16 9 -4 6 0 8 9 4 9 -3 25 1 36 9 13 9 23 11 27 4 3 -5 11 -10 16
-10 6 0 8 4 5 8 -3 5 1 9 8 9 7 0 13 -6 13 -13 0 -7 -4 -11 -8 -8 -4 2 -11 -1
-14 -6 -5 -7 -11 -5 -19 5 -11 16 -13 15 -27 -1 -12 -15 -12 -17 1 -12 8 3 23
-2 33 -11 14 -11 18 -12 15 -2 -3 15 29 24 38 10 3 -5 10 -7 15 -3 5 3 7 10 3
15 -3 5 -10 6 -16 3 -7 -4 -8 -2 -4 4 4 6 14 8 23 5 12 -5 14 -3 8 7 -5 8 -4
11 3 6 6 -4 9 -12 6 -19 -2 -7 4 -13 16 -14 11 -1 20 3 20 8 0 6 -4 8 -8 5 -5
-3 -9 2 -9 11 0 12 5 11 19 -7 10 -12 19 -19 19 -16 1 3 2 11 3 16 0 6 6 9 11
8 6 -2 9 -5 8 -8 -1 -3 -5 -14 -9 -25 -6 -16 -3 -15 14 5 14 16 21 20 22 11 0
-8 3 -11 7 -8 3 4 18 0 32 -9 24 -14 24 -14 -2 9 -27 22 -27 24 -10 38 16 12
17 12 6 -2 -11 -13 -9 -18 14 -28 24 -11 25 -11 12 5 -11 14 -11 16 0 10 8 -5
17 -3 23 5 7 10 8 8 3 -8 -3 -12 -1 -25 6 -29 7 -4 9 -3 5 4 -3 6 -1 14 5 17
6 4 13 -2 16 -14 3 -12 9 -21 14 -21 5 0 3 13 -5 28 -13 24 -13 29 -1 29 8 0
12 -3 10 -7 -2 -4 2 -16 10 -26 13 -18 14 -18 9 2 -3 12 -1 24 4 28 5 3 9 -2
8 -11 -1 -12 7 -18 21 -19 13 -1 20 3 16 9 -4 6 0 8 9 4 9 -3 25 1 36 9 13 9
23 11 27 4 3 -5 11 -10 16 -10 6 0 8 4 5 8 -3 5 1 9 9 9 20 0 19 -7 -2 -22
-14 -11 -19 -10 -28 2 -10 13 -13 13 -26 -3 -12 -15 -12 -17 1 -12 8 3 23 -2
33 -11 15 -12 18 -13 15 -1 -4 19 45 20 53 1 4 -11 7 -10 11 6 5 17 2 21 -13
18 -11 -2 -17 0 -14 5 3 4 13 7 23 5 9 -2 21 -4 26 -4 5 -1 2 -9 -5 -18 -12
-16 -12 -17 2 -6 9 7 20 9 24 5 5 -4 4 -1 0 7 -6 11 -4 13 9 8 14 -5 17 -3 12
8 -3 8 -1 15 4 15 10 0 14 -21 11 -49 -2 -11 0 -11 12 0 8 8 12 20 10 27 -4 8
0 10 11 6 9 -3 13 -10 10 -15 -3 -5 -1 -9 4 -9 16 0 22 13 12 25 -7 8 -5 12 4
12 9 0 13 -9 11 -24 -1 -13 1 -25 4 -28 4 -2 8 6 8 17 1 12 6 25 12 31 7 7 8
2 5 -14 l-6 -24 22 25 c20 24 21 24 10 2 -6 -13 -9 -28 -6 -35 2 -7 5 -4 5 6
1 10 5 16 11 12 5 -3 18 3 29 14 11 11 23 16 26 11 4 -6 1 -10 -4 -10 -6 0
-11 -8 -11 -17 0 -10 4 -14 8 -8 14 19 53 49 52 40 -5 -21 1 -36 10 -30 6 4 8
10 5 15 -3 5 -1 11 4 15 6 3 8 -3 6 -14 -2 -11 3 -25 10 -31 11 -10 13 -6 9
17 -4 25 -3 26 9 11 9 -11 18 -14 28 -7 19 12 52 11 44 -1 -3 -5 -2 -10 3 -10
16 0 22 13 12 25 -7 8 -5 12 4 12 9 0 13 -9 11 -24 -1 -13 1 -25 4 -28 4 -2 8
6 8 17 1 12 6 25 12 31 7 7 8 2 5 -14 l-6 -24 22 25 c20 24 21 24 10 2 -6 -13
-9 -28 -6 -35 2 -7 5 -4 5 6 1 10 5 16 11 12 5 -3 18 3 29 14 11 11 23 16 26
11 4 -6 1 -10 -4 -10 -6 0 -11 -8 -11 -17 0 -10 4 -14 8 -8 14 19 53 49 52 40
-5 -21 1 -36 10 -30 6 4 8 10 5 15 -3 5 -1 11 4 15 6 3 8 -3 6 -14 -2 -11 3
-25 10 -31 11 -10 13 -6 9 17 -4 25 -3 26 9 11 9 -11 18 -14 28 -7 19 12 52
11 44 -1 -3 -5 -2 -10 3 -10 16 0 22 13 12 25 -7 8 -5 12 4 12 9 0 13 -9 11
-24 -1 -13 1 -25 4 -28 4 -2 8 6 8 17 1 12 6 25 12 31 7 7 8 2 4 -13 -4 -15
-2 -21 5 -16 6 3 12 1 15 -6 2 -7 2 -3 1 9 -2 12 1 25 6 28 6 4 10 3 9 -2 -5
-27 2 -33 21 -23 11 6 18 15 15 20 -4 6 2 7 11 3 11 -4 13 -8 6 -11 -7 -2 -12
-10 -12 -19 0 -12 2 -12 16 1 17 17 44 22 44 7 0 -4 12 -8 28 -7 16 0 26 -4
24 -12 -3 -17 3 -15 19 5 8 9 9 14 4 11 -6 -4 -17 3 -24 15 -11 18 -11 20 0 9
16 -15 43 -16 33 0 -4 7 -3 8 4 4 6 -4 8 -14 5 -24 -6 -15 -5 -16 13 -2 10 8
22 20 26 25 5 7 8 6 8 -1 0 -5 -6 -16 -12 -23 -11 -11 -10 -13 5 -7 10 3 21 6
23 6 3 0 2 5 -2 12 -5 7 -3 8 6 3 7 -4 15 -2 20 5 5 8 9 7 13 -5 4 -9 3 -13
-3 -10 -6 3 -10 1 -10 -5 0 -7 7 -9 16 -6 9 3 18 6 20 6 3 0 2 6 -2 12 -6 10
-4 11 7 1 16 -16 29 -17 29 -2 0 5 -4 7 -10 4 -5 -3 -10 -4 -10 -1 0 3 15 13
33 21 18 9 25 11 16 3 -9 -7 -16 -21 -16 -30 0 -14 3 -15 14 -6 7 6 11 13 8
16 -3 3 5 16 17 29 12 13 18 23 14 23 -5 0 -3 6 3 14 7 8 8 17 3 20 -5 3 -7
16 -5 30 3 13 1 26 -4 29 -6 4 -9 -13 -8 -38 1 -24 -2 -42 -6 -39 -4 2 -10 0
-14 -6 -3 -5 -12 -10 -18 -10 -7 0 -5 5 4 10 10 6 15 21 14 42 -1 18 2 38 7
45 6 7 5 14 -2 18 -8 5 -8 10 0 20 6 8 10 20 8 29 -2 8 6 22 17 31 19 15 19
15 -6 6 -20 -7 -26 -6 -26 5 0 8 4 14 9 14 11 0 6 23 -7 32 -6 5 -5 8 3 8 7 0
11 4 7 10 -3 5 7 16 22 25 22 13 23 15 6 10 -14 -4 -23 -2 -23 4 0 10 12 15
30 13 3 0 7 9 7 20 2 19 1 19 -11 3 -11 -15 -16 -16 -32 -6 -18 12 -18 12 1 7
17 -5 16 -3 -5 14 -14 11 -18 18 -9 15 10 -4 16 0 16 10 0 8 -5 15 -11 15 -6
1 0 7 14 14 14 8 29 12 34 8 5 -3 2 5 -7 17 -8 13 -13 30 -10 37 3 8 1 14 -4
14 -13 0 -11 -50 2 -50 5 0 2 -5 -8 -11 -14 -8 -22 -8 -30 1 -9 8 -8 10 6 4
19 -7 21 15 2 28 -6 5 -6 8 1 8 6 0 10 17 9 40 -1 21 2 37 7 34 4 -3 8 2 8 11
0 9 -4 14 -9 10 -5 -3 -12 -1 -15 4 -4 5 -2 12 4 16 6 4 7 12 3 18 -11 18 -12
38 -2 31 5 -3 6 -11 3 -17 -5 -8 -3 -8 7 1 15 14 33 16 24 3 -3 -5 -1 -12 4
-15 5 -4 8 2 7 11 -2 10 -9 18 -17 18 -26 0 -29 20 -6 38 l22 17 -26 -9 c-20
-7 -26 -6 -26 5 0 8 4 14 9 14 11 0 6 23 -7 32 -6 5 -5 8 3 8 7 0 11 4 7 10
-3 5 7 16 22 25 22 13 23 15 6 10 -14 -4 -23 -2 -23 4 0 10 14 15 33 12 4 0 7
4 7 10 0 6 -8 8 -17 5 -10 -3 -25 -1 -33 5 -12 8 -12 9 5 7 11 -2 20 3 21 10
1 6 2 13 4 15 1 1 3 9 5 19 2 12 -3 15 -22 12 -15 -3 -22 -1 -18 6 3 5 15 10
25 10 10 0 21 4 24 8 3 5 -4 8 -14 8 -11 -1 -19 3 -19 8 1 5 -5 13 -13 17 -7
5 -8 9 -2 9 6 0 10 17 9 40 -1 21 2 37 7 34 4 -3 8 2 8 11 0 9 -4 14 -9 10 -5
-3 -12 -1 -15 4 -4 5 -2 13 4 16 8 5 8 11 0 20 -6 7 -7 16 -2 19 5 3 8 23 7
45 -1 22 2 38 7 35 4 -3 8 2 8 11 0 9 -4 14 -9 10 -5 -3 -12 -1 -15 4 -4 5 -2
12 4 16 6 4 7 12 3 18 -11 18 -12 38 -2 31 5 -3 6 -11 3 -17 -5 -8 -3 -8 7 1
15 14 33 16 24 3 -3 -5 -1 -12 4 -15 5 -4 8 2 7 11 -2 10 -9 18 -17 18 -26 0
-29 20 -6 38 l22 17 -26 -9 c-20 -7 -26 -6 -26 5 0 8 4 14 9 14 11 0 6 23 -7
32 -6 5 -5 8 3 8 7 0 11 4 7 10 -3 5 7 16 22 25 22 13 23 15 6 10 -14 -4 -23
-2 -23 4 0 10 14 15 33 12 4 0 7 4 7 10 0 6 -8 8 -17 5 -10 -3 -25 -1 -33 5
-12 8 -12 9 5 7 11 -2 20 3 21 10 1 6 2 13 4 15 1 1 3 9 5 19 2 12 -3 15 -22
12 -15 -3 -22 -1 -18 6 3 5 15 10 25 10 10 0 21 4 24 8 3 5 -4 8 -14 8 -11 -1
-19 3 -19 8 1 5 -5 13 -13 17 -7 5 -8 9 -2 9 6 0 10 17 9 40 -1 21 2 37 7 34
4 -3 8 2 8 11 0 9 -4 14 -9 10 -5 -3 -12 -1 -15 4 -4 5 -2 13 4 16 8 5 8 11 0
20 -6 7 -7 16 -2 19 5 3 8 23 7 45 -1 22 2 38 7 35 4 -3 8 2 8 11 0 9 -4 14
-9 10 -5 -3 -12 -1 -15 4 -4 5 -2 12 4 16 6 4 7 12 3 18 -11 18 -12 38 -2 31
5 -3 6 -11 3 -17 -5 -8 -3 -8 7 1 15 14 33 16 24 3 -3 -5 -1 -12 4 -15 5 -4 8
2 7 11 -2 10 -9 18 -17 18 -26 0 -29 20 -6 38 l22 17 -26 -9 c-20 -7 -26 -6
-26 5 0 8 4 14 9 14 11 0 6 23 -7 32 -6 5 -5 8 3 8 7 0 11 4 7 10 -3 5 7 16
22 25 22 13 23 15 6 10 -14 -4 -23 -2 -23 4 0 10 14 15 33 12 4 0 7 4 7 10 0
6 -8 8 -17 5 -10 -3 -25 -1 -33 5 -12 8 -12 9 5 7 11 -2 20 3 21 10 1 6 2 13
4 15 1 1 3 9 5 19 2 12 -3 15 -22 12 -15 -3 -22 -1 -18 6 3 5 15 10 25 10 10
0 21 4 24 8 3 5 -3 8 -12 8 -9 -1 -18 3 -19 8 -1 5 -7 13 -15 17 -7 5 -8 9 -2
9 6 0 10 17 9 40 -1 21 2 37 7 34 4 -3 8 2 8 11 0 9 -4 14 -9 10 -5 -3 -12 -1
-15 4 -4 5 -2 13 4 16 8 5 8 11 0 20 -6 7 -7 16 -2 19 5 3 8 23 7 45 -1 22 2
38 7 35 4 -3 8 2 8 11 0 9 -4 14 -9 10 -5 -3 -12 -1 -15 4 -4 5 -2 12 4 16 6
4 7 12 3 18 -11 18 -12 38 -2 31 5 -3 6 -11 3 -17 -5 -8 -3 -8 7 1 15 14 33
16 24 3 -3 -5 -1 -12 4 -15 5 -4 8 2 7 11 -2 10 -9 18 -17 18 -26 0 -29 20 -6
38 l22 17 -26 -9 c-20 -7 -26 -6 -26 5 0 8 4 14 9 14 11 0 6 23 -7 32 -6 5 -5
8 3 8 7 0 10 4 7 10 -3 5 5 15 19 21 14 7 23 16 19 22 -3 5 -9 4 -13 -3 -6
-10 -12 -10 -26 0 -18 11 -18 11 1 6 19 -6 19 -5 2 8 -17 13 -17 14 0 21 16 6
16 8 -6 26 -12 10 -27 16 -32 13 -5 -3 -6 2 -3 10 5 14 8 14 21 1 8 -9 19 -12
25 -9 7 5 8 2 3 -6 -5 -9 -4 -11 3 -6 9 5 9 13 1 27 -13 26 -5 51 16 43 8 -3
15 -4 15 -1 0 14 -29 12 -58 -5z m8 -23 c7 -9 8 -15 2 -15 -5 0 -12 7 -16 15
-3 8 -4 15 -2 15 2 0 9 -7 16 -15z m-129 -62 c13 -16 12 -17 -3 -4 -14 11 -18
11 -18 1 0 -8 -3 -11 -6 -7 -5 5 3 27 10 27 2 0 10 -8 17 -17z m126 1 c-3 -3
-12 -4 -19 -1 -8 3 -5 6 6 6 11 1 17 -2 13 -5z m-3 -69 c-4 -8 -11 -12 -16 -9
-6 4 -5 10 3 15 19 12 19 11 13 -6z m-234 -70 c0 -2 -6 -8 -13 -14 -10 -8 -14
-7 -14 2 0 8 6 14 14 14 7 0 13 -1 13 -2z m-80 -25 c-10 -7 -11 -10 -2 -10 6
0 12 -5 12 -11 0 -8 -5 -8 -15 1 -17 14 -21 0 -4 -17 7 -7 4 -10 -13 -9 -18 1
-23 -4 -22 -22 1 -18 -1 -20 -12 -11 -11 9 -14 8 -14 -1 0 -8 -3 -11 -6 -7 -3
3 13 29 37 56 23 28 45 49 48 46 3 -4 -1 -10 -9 -15z m-84 -122 c4 -6 3 -8 -4
-5 -15 10 -43 -3 -35 -16 4 -6 1 -7 -7 -2 -10 6 -9 11 5 22 23 16 32 16 41 1z
m394 -18 c0 -5 -2 -10 -4 -10 -3 0 -8 5 -11 10 -3 6 -1 10 4 10 6 0 11 -4 11
-10z m-2 -45 c-3 -3 -9 2 -12 12 -6 14 -5 15 5 6 7 -7 10 -15 7 -18z m-2887
-48 c-10 -9 -11 -8 -5 6 3 10 9 15 12 12 3 -3 0 -11 -7 -18z m2404 14 c3 -5 2
-12 -3 -15 -5 -3 -9 1 -9 9 0 17 3 19 12 6z m-40 -29 c-3 -3 -11 0 -18 7 -9
10 -8 11 6 5 10 -3 15 -9 12 -12z m525 -52 c0 -5 -2 -10 -4 -10 -3 0 -8 5 -11
10 -3 6 -1 10 4 10 6 0 11 -4 11 -10z m-2659 -17 c11 -15 11 -16 -1 -6 -11 10
-17 10 -29 0 -14 -11 -14 -10 -2 6 7 9 15 17 16 17 1 0 9 -8 16 -17z m2657
-28 c-3 -3 -9 2 -12 12 -6 14 -5 15 5 6 7 -7 10 -15 7 -18z m-2881 -32 c0 -8
-6 -9 -19 -2 -23 12 -23 15 0 15 10 0 19 -6 19 -13z m344 -64 c6 -12 5 -20 -3
-25 -7 -4 -10 -4 -6 1 10 11 -11 47 -23 40 -5 -4 -14 -3 -20 1 -8 4 -7 9 2 15
15 9 35 -4 50 -32z m1817 16 c-6 -14 -13 -23 -15 -21 -5 5 15 46 22 46 3 0 -1
-11 -7 -25z m753 -29 c-6 -7 -7 -16 -3 -21 4 -4 -3 -2 -15 4 -26 13 -31 23 -8
14 9 -3 15 -2 14 3 -3 18 1 25 11 19 8 -5 8 -11 1 -19z m-2480 -73 c11 -15 11
-16 0 -6 -7 6 -21 9 -30 6 -14 -4 -14 -3 -1 6 8 6 16 11 16 11 1 0 8 -8 15
-17z m-446 -29 l17 -27 -25 19 c-14 11 -23 22 -20 27 7 11 9 9 28 -19z m2899
11 c-4 -8 -11 -12 -16 -9 -6 4 -5 10 3 15 19 12 19 11 13 -6z m-2906 -60 c-2
-12 -7 -7 -15 16 -12 30 -11 32 3 17 9 -8 14 -23 12 -33z m11 -32 c-7 -10 -14
-19 -15 -21 -1 -2 -4 4 -8 13 -3 9 -2 13 3 10 5 -3 12 -1 16 5 3 5 9 10 12 10
3 0 -1 -8 -8 -17z m1947 -18 c1 -8 -2 -15 -7 -15 -5 0 -9 5 -9 11 0 5 -5 7
-10 4 -6 -4 -8 -10 -6 -14 3 -4 0 -13 -6 -21 -8 -12 -9 -12 -4 3 3 10 0 17 -7
17 -7 1 -1 10 12 21 25 20 33 19 37 -6z m-1369 8 c-4 -3 2 -16 13 -28 18 -19
19 -23 6 -28 -17 -7 -30 8 -21 23 3 6 -1 13 -10 16 -13 6 -14 8 -3 15 16 10
24 12 15 2z m-594 -38 c4 -8 3 -16 -1 -19 -4 -3 -9 4 -9 15 -2 23 3 25 10 4z
m694 -79 c12 -13 13 -17 3 -10 -8 6 -25 10 -37 9 -12 -1 -19 3 -17 10 7 18 32
14 51 -9z m2213 -16 c0 -5 -2 -10 -4 -10 -3 0 -8 5 -11 10 -3 6 -1 10 4 10 6
0 11 -4 11 -10z m-2 -45 c-3 -3 -9 2 -12 12 -6 14 -5 15 5 6 7 -7 10 -15 7
-18z m-1153 -15 c4 -6 1 -9 -6 -8 -6 2 -14 -3 -16 -10 -3 -8 1 -10 14 -6 13 5
12 2 -5 -10 -12 -10 -20 -21 -18 -25 3 -4 -1 -8 -9 -8 -8 0 -12 4 -9 9 3 4 0
8 -7 8 -7 0 0 14 16 30 33 34 32 34 40 20z m-984 -37 c13 -16 12 -17 -3 -4
-10 7 -18 15 -18 17 0 8 8 3 21 -13z m2139 -63 c0 -5 -2 -10 -4 -10 -3 0 -8 5
-11 10 -3 6 -1 10 4 10 6 0 11 -4 11 -10z m-2 -45 c-3 -3 -9 2 -12 12 -6 14
-5 15 5 6 7 -7 10 -15 7 -18z m-2886 -2 c-6 -2 -10 -9 -7 -14 4 -5 -2 -6 -11
-2 -15 5 -13 0 6 -27 l24 -34 -26 19 c-14 11 -25 26 -24 33 3 15 25 32 41 31
6 0 4 -3 -3 -6z m927 -77 c-3 -3 -11 5 -18 17 -13 21 -12 21 5 5 10 -10 16
-20 13 -22z m-941 -21 c-2 -12 -7 -7 -15 16 -12 30 -11 32 3 17 9 -8 14 -23
12 -33z m2933 -9 c-6 -7 -7 -16 -3 -21 4 -4 -3 -2 -15 4 -26 13 -31 23 -8 14
9 -3 15 -2 14 3 -3 18 1 25 11 19 8 -5 8 -11 1 -19z m-2922 -23 c-7 -10 -14
-19 -15 -21 -1 -2 -4 4 -8 13 -3 9 -2 13 3 10 5 -3 12 -1 16 5 3 5 9 10 12 10
3 0 -1 -8 -8 -17z m1018 -19 c-3 -3 -12 -4 -19 -1 -8 3 -5 6 6 6 11 1 17 -2
13 -5z m-1034 -29 c4 -8 3 -16 -1 -19 -4 -3 -9 4 -9 15 -2 23 3 25 10 4z
m1467 -11 c0 -8 -19 -13 -24 -6 -3 5 1 9 9 9 8 0 15 -2 15 -3z m1444 -9 c-4
-8 -11 -12 -16 -9 -6 4 -5 10 3 15 19 12 19 11 13 -6z m-1613 -128 c-10 -9
-11 -8 -5 6 3 10 9 15 12 12 3 -3 0 -11 -7 -18z m-1274 -24 c0 -8 -6 -9 -19
-2 -23 12 -23 15 0 15 10 0 19 -6 19 -13z m2883 -83 c0 -5 -2 -10 -4 -10 -3 0
-8 5 -11 10 -3 6 -1 10 4 10 6 0 11 -4 11 -10z m-2 -45 c-3 -3 -9 2 -12 12 -6
14 -5 15 5 6 7 -7 10 -15 7 -18z m-2893 -51 l17 -27 -25 19 c-14 11 -23 22
-20 27 7 11 9 9 28 -19z m-7 -49 c-2 -12 -7 -7 -15 16 -12 30 -11 32 3 17 9
-8 14 -23 12 -33z m2902 -15 c0 -5 -2 -10 -4 -10 -3 0 -8 5 -11 10 -3 6 -1 10
4 10 6 0 11 -4 11 -10z m-2891 -17 c-7 -10 -14 -19 -15 -21 -1 -2 -4 4 -8 13
-3 9 -2 13 3 10 5 -3 12 -1 16 5 3 5 9 10 12 10 3 0 -1 -8 -8 -17z m2889 -28
c-3 -3 -9 2 -12 12 -6 14 -5 15 5 6 7 -7 10 -15 7 -18z m-2905 -20 c4 -8 3
-16 -1 -19 -4 -3 -9 4 -9 15 -2 23 3 25 10 4z m2938 -89 c-6 -7 -7 -16 -3 -21
4 -4 -3 -2 -15 4 -26 13 -31 23 -8 14 9 -3 15 -2 14 3 -3 18 1 25 11 19 8 -5
8 -11 1 -19z m-27 -91 c-4 -8 -11 -12 -16 -9 -6 4 -5 10 3 15 19 12 19 11 13
-6z m-2892 -122 c-6 -2 -10 -9 -7 -14 4 -5 -2 -6 -11 -2 -15 5 -13 0 6 -27
l24 -34 -26 19 c-14 11 -25 26 -24 33 3 15 25 32 41 31 6 0 4 -3 -3 -6z m-14
-98 c-2 -12 -7 -7 -15 16 -12 30 -11 32 3 17 9 -8 14 -23 12 -33z m2902 -15
c0 -5 -2 -10 -4 -10 -3 0 -8 5 -11 10 -3 6 -1 10 4 10 6 0 11 -4 11 -10z
m-2891 -17 c-7 -10 -14 -19 -15 -21 -1 -2 -4 4 -8 13 -3 9 -2 13 3 10 5 -3 12
-1 16 5 3 5 9 10 12 10 3 0 -1 -8 -8 -17z m2889 -28 c-3 -3 -9 2 -12 12 -6 14
-5 15 5 6 7 -7 10 -15 7 -18z m-2905 -20 c4 -8 3 -16 -1 -19 -4 -3 -9 4 -9 15
-2 23 3 25 10 4z m27 -160 c0 -7 -30 -13 -34 -7 -3 4 4 9 15 9 10 1 19 0 19
-2z m2883 -20 c-3 -9 -8 -14 -10 -11 -3 3 -2 9 2 15 9 16 15 13 8 -4z m7 -129
c0 -2 -8 -10 -17 -17 -16 -13 -17 -12 -4 4 13 16 21 21 21 13z m-2895 -26 c3
-5 1 -10 -4 -10 -6 0 -11 5 -11 10 0 6 2 10 4 10 3 0 8 -4 11 -10z m-4 -34 c8
5 9 3 5 -5 -6 -9 -13 -8 -27 5 -10 9 -16 21 -12 27 3 6 10 1 15 -12 5 -13 12
-19 19 -15z m2919 -100 c0 -3 -4 -8 -10 -11 -5 -3 -10 -1 -10 4 0 6 5 11 10
11 6 0 10 -2 10 -4z m-275 -64 c-3 -3 -11 0 -18 7 -9 10 -8 11 6 5 10 -3 15
-9 12 -12z"/>
<path d="M3082 2890 c-7 -11 -8 -20 -3 -20 9 0 24 30 18 36 -1 2 -8 -6 -15
-16z"/>
<path d="M2795 2830 c-3 -5 -1 -10 4 -10 6 0 11 5 11 10 0 6 -2 10 -4 10 -3 0
-8 -4 -11 -10z"/>
<path d="M3073 2805 c0 -8 3 -13 5 -10 3 3 12 -1 20 -8 13 -11 14 -9 1 11 -16
26 -26 28 -26 7z"/>
<path d="M2736 2783 c-6 -14 -5 -15 5 -6 7 7 10 15 7 18 -3 3 -9 -2 -12 -12z"/>
<path d="M3073 2765 c0 -8 4 -12 9 -9 4 3 8 9 8 15 0 5 -4 9 -8 9 -5 0 -9 -7
-9 -15z"/>
<path d="M3077 2661 c2 -2 -3 -11 -10 -19 -10 -13 -9 -14 2 -8 8 5 17 3 22 -5
5 -8 9 -9 9 -3 0 5 -6 17 -12 25 -7 8 -12 12 -11 10z"/>
<path d="M176 2643 c-6 -14 -5 -15 5 -6 7 7 10 15 7 18 -3 3 -9 -2 -12 -12z"/>
<path d="M210 2631 c0 -6 4 -13 10 -16 6 -3 7 1 4 9 -7 18 -14 21 -14 7z"/>
<path d="M3080 2590 c-13 -8 -13 -10 2 -10 9 0 20 5 23 10 8 13 -5 13 -25 0z"/>
<path d="M110 2580 c8 -5 20 -10 25 -10 6 0 3 5 -5 10 -8 5 -19 10 -25 10 -5
0 -3 -5 5 -10z"/>
<path d="M2543 2559 c1 -6 -4 -14 -12 -17 -9 -3 -11 0 -6 8 5 8 4 11 -3 6 -6
-4 -9 -13 -5 -22 5 -13 8 -13 24 2 10 9 16 21 13 25 -7 13 -14 11 -11 -2z"/>
<path d="M3073 2543 c4 -3 2 -12 -4 -19 -7 -8 -7 -14 1 -19 8 -5 8 -11 -1 -21
-10 -12 -9 -13 5 -8 10 4 16 1 16 -7 0 -7 3 -9 6 -6 4 4 -1 18 -10 31 -9 15
-12 27 -6 31 14 8 13 25 -2 25 -6 0 -8 -3 -5 -7z"/>
<path d="M2486 2532 c-3 -5 1 -9 9 -9 8 0 12 4 9 9 -3 4 -7 8 -9 8 -2 0 -6 -4
-9 -8z"/>
<path d="M3095 2521 c-3 -5 -2 -12 3 -15 5 -3 9 1 9 9 0 17 -3 19 -12 6z"/>
<path d="M2442 2464 c-7 -8 -17 -12 -23 -9 -5 4 -9 1 -9 -5 0 -7 8 -9 22 -4
21 6 22 5 8 -12 -8 -10 0 -6 18 10 18 17 32 30 32 31 0 8 -38 -1 -48 -11z"/>
<path d="M3080 2430 c-13 -8 -13 -10 2 -10 9 0 20 5 23 10 8 13 -5 13 -25 0z"/>
<path d="M3074 2365 c0 -14 3 -25 7 -25 3 0 7 11 7 25 0 14 -4 25 -7 25 -4 0
-7 -11 -7 -25z"/>
<path d="M2315 2370 c-2 -3 5 -7 16 -7 10 -1 19 2 19 6 0 9 -29 10 -35 1z"/>
<path d="M100 2298 c0 -10 5 -18 11 -18 5 0 8 -4 5 -9 -3 -5 0 -14 7 -19 10
-9 13 -6 13 13 0 13 -3 22 -7 19 -4 -2 -12 4 -18 13 -10 17 -10 17 -11 1z"/>
<path d="M536 2262 c-3 -4 4 -9 15 -9 23 -2 25 3 4 10 -8 4 -16 3 -19 -1z"/>
<path d="M2213 2255 c0 -8 4 -12 9 -9 10 6 11 -10 1 -19 -3 -4 -13 -1 -21 6
-13 11 -14 9 -1 -10 8 -14 16 -18 20 -11 4 6 12 14 18 17 8 5 6 13 -7 24 -15
14 -19 14 -19 2z"/>
<path d="M110 2230 c0 -5 5 -10 11 -10 5 0 7 5 4 10 -3 6 -8 10 -11 10 -2 0
-4 -4 -4 -10z"/>
<path d="M3073 2165 c0 -8 3 -13 5 -10 3 3 12 -1 20 -8 13 -11 14 -9 1 11 -16
26 -26 28 -26 7z"/>
<path d="M3073 2125 c0 -8 4 -12 9 -9 4 3 8 9 8 15 0 5 -4 9 -8 9 -5 0 -9 -7
-9 -15z"/>
<path d="M95 2090 c3 -5 8 -10 11 -10 2 0 4 5 4 10 0 6 -5 10 -11 10 -5 0 -7
-4 -4 -10z"/>
<path d="M2000 2038 c-10 -21 -10 -21 3 -6 8 10 18 14 22 10 5 -4 5 -1 1 6
-10 17 -14 15 -26 -10z"/>
<path d="M3077 2021 c2 -2 -3 -11 -10 -19 -10 -13 -9 -14 2 -8 8 5 17 3 22 -5
5 -8 9 -9 9 -3 0 5 -6 17 -12 25 -7 8 -12 12 -11 10z"/>
<path d="M95 1990 c3 -5 8 -10 11 -10 2 0 4 5 4 10 0 6 -5 10 -11 10 -5 0 -7
-4 -4 -10z"/>
<path d="M3080 1950 c-13 -8 -13 -10 2 -10 9 0 20 5 23 10 8 13 -5 13 -25 0z"/>
<path d="M3073 1903 c4 -3 2 -12 -4 -19 -7 -8 -7 -14 1 -19 8 -5 8 -11 -1 -21
-10 -12 -9 -13 5 -8 10 4 16 1 16 -7 0 -7 3 -9 6 -6 4 4 -1 18 -10 31 -9 15
-12 27 -6 31 14 8 13 25 -2 25 -6 0 -8 -3 -5 -7z"/>
<path d="M954 1892 c3 -5 0 -13 -6 -15 -9 -4 -10 -6 -1 -6 17 -1 25 16 12 25
-7 4 -9 3 -5 -4z"/>
<path d="M3095 1881 c-3 -5 -2 -12 3 -15 5 -3 9 1 9 9 0 17 -3 19 -12 6z"/>
<path d="M95 1870 c-4 -6 1 -7 11 -3 13 5 15 3 9 -7 -5 -9 -4 -11 3 -6 7 4 12
2 12 -4 0 -6 5 -8 11 -5 6 5 4 12 -8 21 -22 16 -30 17 -38 4z"/>
<path d="M1023 1785 c-8 -9 -9 -16 -3 -20 6 -3 10 -1 10 5 0 6 4 8 10 5 6 -3
7 1 4 9 -7 19 -6 19 -21 1z"/>
<path d="M3080 1790 c-13 -8 -13 -10 2 -10 9 0 20 5 23 10 8 13 -5 13 -25 0z"/>
<path d="M1750 1780 c0 -6 5 -10 11 -10 5 0 8 -4 5 -8 -3 -5 1 -9 8 -9 8 0 12
6 9 13 -6 16 -33 27 -33 14z"/>
<path d="M1733 1764 c8 -15 -30 -64 -49 -64 -8 0 -14 -5 -14 -12 0 -6 3 -8 7
-5 3 4 12 2 19 -3 9 -8 12 -6 10 7 0 11 5 17 14 15 8 -2 12 0 7 4 -4 4 1 16
10 26 14 15 14 21 3 31 -8 7 -10 8 -7 1z"/>
<path d="M1695 1751 c4 -8 2 -17 -6 -22 -9 -6 -10 -9 -2 -9 19 0 27 21 13 33
-10 9 -11 9 -5 -2z"/>
<path d="M1077 1735 c-4 -8 -3 -16 1 -19 4 -3 9 4 9 15 2 23 -3 25 -10 4z"/>
<path d="M3074 1725 c0 -14 3 -25 7 -25 3 0 7 11 7 25 0 14 -4 25 -7 25 -4 0
-7 -11 -7 -25z"/>
<path d="M1610 1645 c2 -5 2 -19 1 -30 -1 -17 -3 -18 -11 -5 -6 9 -10 10 -10
3 0 -22 19 -24 30 -2 9 16 9 24 0 33 -6 6 -11 7 -10 1z"/>
<path d="M95 1610 c3 -5 8 -10 11 -10 2 0 4 5 4 10 0 6 -5 10 -11 10 -5 0 -7
-4 -4 -10z"/>
<path d="M1221 1586 c-7 -8 -8 -17 -3 -20 6 -3 12 3 15 14 6 24 4 25 -12 6z"/>
<path d="M1240 1573 c0 -16 38 -45 52 -40 10 4 10 6 -1 6 -7 1 -22 11 -32 23
-11 11 -19 17 -19 11z"/>
<path d="M1525 1570 c-3 -5 -2 -10 4 -10 5 0 13 5 16 10 3 6 2 10 -4 10 -5 0
-13 -4 -16 -10z"/>
<path d="M1543 1549 c-5 -5 -20 -11 -32 -12 -11 -1 -21 -5 -21 -10 0 -5 10 -5
22 -1 21 6 22 6 8 -12 -14 -17 -13 -18 1 -7 9 7 20 9 24 5 5 -4 5 -1 1 6 -4 7
-2 19 4 27 14 17 9 20 -7 4z"/>
<path d="M3073 1525 c0 -8 3 -13 5 -10 3 3 12 -1 20 -8 13 -11 14 -9 1 11 -16
26 -26 28 -26 7z"/>
<path d="M95 1510 c3 -5 8 -10 11 -10 2 0 4 5 4 10 0 6 -5 10 -11 10 -5 0 -7
-4 -4 -10z"/>
<path d="M3073 1485 c0 -8 4 -12 9 -9 4 3 8 9 8 15 0 5 -4 9 -8 9 -5 0 -9 -7
-9 -15z"/>
<path d="M3077 1381 c2 -2 -3 -11 -10 -19 -10 -13 -9 -14 2 -8 8 5 17 3 22 -5
5 -8 9 -9 9 -3 0 5 -6 17 -12 25 -7 8 -12 12 -11 10z"/>
<path d="M100 1338 c0 -10 5 -18 11 -18 5 0 8 -4 5 -9 -3 -5 0 -14 7 -19 10
-9 13 -6 13 13 0 13 -3 22 -7 19 -4 -2 -12 4 -18 13 -10 17 -10 17 -11 1z"/>
<path d="M3080 1310 c-13 -8 -13 -10 2 -10 9 0 20 5 23 10 8 13 -5 13 -25 0z"/>
<path d="M110 1270 c0 -5 5 -10 11 -10 5 0 7 5 4 10 -3 6 -8 10 -11 10 -2 0
-4 -4 -4 -10z"/>
<path d="M3073 1263 c4 -3 2 -12 -4 -19 -7 -8 -7 -14 1 -19 8 -5 8 -11 -1 -21
-10 -12 -9 -13 5 -8 10 4 16 1 16 -7 0 -7 3 -9 6 -6 4 4 -1 18 -10 31 -9 15
-12 27 -6 31 14 8 13 25 -2 25 -6 0 -8 -3 -5 -7z"/>
<path d="M3095 1241 c-3 -5 -2 -12 3 -15 5 -3 9 1 9 9 0 17 -3 19 -12 6z"/>
<path d="M3080 1150 c-13 -8 -13 -10 2 -10 9 0 20 5 23 10 8 13 -5 13 -25 0z"/>
<path d="M95 1130 c3 -5 8 -10 11 -10 2 0 4 5 4 10 0 6 -5 10 -11 10 -5 0 -7
-4 -4 -10z"/>
<path d="M3074 1085 c0 -14 3 -25 7 -25 3 0 7 11 7 25 0 14 -4 25 -7 25 -4 0
-7 -11 -7 -25z"/>
<path d="M95 1030 c3 -5 8 -10 11 -10 2 0 4 5 4 10 0 6 -5 10 -11 10 -5 0 -7
-4 -4 -10z"/>
<path d="M95 910 c-4 -6 1 -7 11 -3 13 5 15 3 9 -7 -5 -9 -4 -11 3 -6 7 4 12
2 12 -4 0 -6 5 -8 11 -5 6 5 4 12 -8 21 -22 16 -30 17 -38 4z"/>
<path d="M3073 885 c0 -8 3 -13 5 -10 3 3 12 -1 20 -8 13 -11 14 -9 1 11 -16
26 -26 28 -26 7z"/>
<path d="M3073 845 c0 -8 4 -12 9 -9 4 3 8 9 8 15 0 5 -4 9 -8 9 -5 0 -9 -7
-9 -15z"/>
<path d="M3077 741 c2 -2 -3 -11 -10 -19 -10 -13 -9 -14 2 -8 8 5 17 3 22 -5
5 -8 9 -9 9 -3 0 5 -6 17 -12 25 -7 8 -12 12 -11 10z"/>
<path d="M3080 670 c-13 -8 -13 -10 2 -10 9 0 20 5 23 10 8 13 -5 13 -25 0z"/>
<path d="M95 650 c3 -5 8 -10 11 -10 2 0 4 5 4 10 0 6 -5 10 -11 10 -5 0 -7
-4 -4 -10z"/>
<path d="M95 550 c3 -5 8 -10 11 -10 2 0 4 5 4 10 0 6 -5 10 -11 10 -5 0 -7
-4 -4 -10z"/>
<path d="M3074 523 c0 -20 15 -34 17 -15 0 4 2 14 4 23 1 9 -3 16 -9 16 -7 0
-12 -11 -12 -24z"/>
<path d="M3073 405 c0 -8 3 -13 5 -10 3 3 12 -1 20 -8 13 -11 14 -9 1 11 -16
26 -26 28 -26 7z"/>
<path d="M100 378 c0 -10 5 -18 11 -18 5 0 8 -4 5 -9 -3 -5 0 -14 7 -19 10 -9
13 -6 13 13 0 13 -3 22 -7 19 -4 -2 -12 4 -18 13 -10 17 -10 17 -11 1z"/>
<path d="M3073 365 c0 -8 4 -12 9 -9 4 3 8 9 8 15 0 5 -4 9 -8 9 -5 0 -9 -7
-9 -15z"/>
<path d="M3085 290 c3 -5 8 -10 11 -10 2 0 4 5 4 10 0 6 -5 10 -11 10 -5 0 -7
-4 -4 -10z"/>
<path d="M95 279 c-4 -6 -5 -12 -2 -15 2 -3 7 2 10 11 7 17 1 20 -8 4z"/>
<path d="M3066 271 c-4 -5 -2 -12 4 -16 5 -3 10 -3 10 2 0 4 4 1 10 -7 5 -8
11 -12 15 -9 3 3 -3 14 -14 23 -11 10 -21 13 -25 7z"/>
<path d="M106 183 c5 -4 9 -23 8 -40 0 -18 4 -33 10 -34 6 0 2 -4 -9 -8 -17
-7 -16 -8 9 -15 24 -6 26 -9 14 -24 -12 -15 -11 -16 5 -3 15 12 16 17 4 35 -7
12 -12 31 -11 44 1 12 -3 22 -7 22 -5 0 -8 5 -6 11 1 6 -5 14 -13 16 -9 3 -11
1 -4 -4z"/>
<path d="M82 136 c15 -30 16 -30 14 -3 0 13 -6 24 -13 24 -9 0 -9 -6 -1 -21z"/>
<path d="M3070 89 c0 -5 5 -7 10 -4 6 3 10 8 10 11 0 2 -4 4 -10 4 -5 0 -10
-5 -10 -11z"/>
<path d="M511 67 c-1 -11 -6 -15 -13 -11 -7 5 -8 3 -3 -5 10 -16 29 2 22 21
-4 8 -6 7 -6 -5z"/>
<path d="M2111 67 c-1 -11 -6 -15 -13 -11 -7 5 -8 3 -3 -5 10 -16 29 2 22 21
-4 8 -6 7 -6 -5z"/>
<path d="M2431 67 c-1 -11 -6 -15 -13 -11 -7 5 -8 3 -3 -5 10 -16 29 2 22 21
-4 8 -6 7 -6 -5z"/>
<path d="M187 48 c19 -21 31 -25 14 -5 -6 8 -9 16 -6 19 3 2 -2 5 -10 5 -13 0
-13 -3 2 -19z"/>
<path d="M630 60 c0 -5 5 -10 11 -10 5 0 7 5 4 10 -3 6 -8 10 -11 10 -2 0 -4
-4 -4 -10z"/>
<path d="M2751 54 c0 -11 3 -14 6 -6 3 7 2 16 -1 19 -3 4 -6 -2 -5 -13z"/>
<path d="M2920 56 c0 -2 7 -7 16 -10 8 -3 12 -2 9 4 -6 10 -25 14 -25 6z"/>
<path d="M2975 50 c-3 -6 1 -7 9 -4 18 7 21 14 7 14 -6 0 -13 -4 -16 -10z"/>
</g>
</svg>
